<?xml version="1.0" encoding="UTF-8" standalone="no"?>
<!-- Created with Inkscape (http://www.inkscape.org/) -->

<svg
   width="20"
   height="20"
   viewBox="0 0 5.2916665 5.2916666"
   version="1.1"
   id="svg8"
   inkscape:version="1.1.2 (0a00cf5339, 2022-02-04, custom)"
   sodipodi:docname="ViewZoomIn.svg"
   xmlns:inkscape="http://www.inkscape.org/namespaces/inkscape"
   xmlns:sodipodi="http://sodipodi.sourceforge.net/DTD/sodipodi-0.dtd"
   xmlns="http://www.w3.org/2000/svg"
   xmlns:svg="http://www.w3.org/2000/svg"
   xmlns:rdf="http://www.w3.org/1999/02/22-rdf-syntax-ns#"
   xmlns:cc="http://creativecommons.org/ns#"
   xmlns:dc="http://purl.org/dc/elements/1.1/">
  <defs
     id="defs2" />
  <sodipodi:namedview
     id="base"
     pagecolor="#ffffff"
     bordercolor="#666666"
     borderopacity="1.0"
     inkscape:pageopacity="0.0"
     inkscape:pageshadow="2"
     inkscape:zoom="31.659099"
     inkscape:cx="5.732949"
     inkscape:cy="11.007894"
     inkscape:document-units="px"
     inkscape:current-layer="ForwardPlayback"
     showgrid="true"
     units="px"
     inkscape:window-width="1920"
     inkscape:window-height="1137"
     inkscape:window-x="-8"
     inkscape:window-y="-8"
     inkscape:window-maximized="1"
     inkscape:pagecheckerboard="0"
     inkscape:snap-bbox="true"
     inkscape:bbox-nodes="true">
    <inkscape:grid
       type="xygrid"
       id="grid4526"
       empspacing="10" />
  </sodipodi:namedview>
  <metadata
     id="metadata5">
    <rdf:RDF>
      <cc:Work
         rdf:about="">
        <dc:format>image/svg+xml</dc:format>
        <dc:type
           rdf:resource="http://purl.org/dc/dcmitype/StillImage" />
      </cc:Work>
    </rdf:RDF>
  </metadata>
  <g
     inkscape:label="Layer 1"
     inkscape:groupmode="layer"
     id="layer1"
     transform="translate(0,-291.70831)">
    <g
       id="ForwardPlayback"
       inkscape:label="#g4524"
       inkscape:export-xdpi="96"
       inkscape:export-ydpi="96">
      <path
         id="path1976"
         style="fill:#f0f0f0;fill-opacity:1;stroke:none;stroke-width:0.529167"
         d="m 2.1705452,292.53836 c -0.00835,0.008 -0.01643,0.0167 -0.024481,0.0252 -0.2470147,0.25834 -0.3568968,0.63546 -0.2576026,1.00596 0.1512876,0.56459 0.7311574,0.89961 1.2956869,0.74836 0.094879,-0.0254 0.1831157,-0.0628 0.2638145,-0.11035 l 0.959159,0.95919 0.3741634,-0.37418 -0.9595244,-0.95956 c 0.1391155,-0.236 0.1872374,-0.52527 0.1107143,-0.81084 -0.1512826,-0.56457 -0.7311518,-0.89959 -1.2956869,-0.74835 -0.1819046,0.0488 -0.3409466,0.1412 -0.4662427,0.26455 z m 0.1666197,0.20829 c 0.097143,-0.10139 0.2224244,-0.17841 0.3679517,-0.21742 0.4233978,-0.11343 0.8584876,0.13784 0.9719478,0.56127 0.11346,0.42341 -0.1378383,0.85854 -0.561245,0.97198 -0.423399,0.11343 -0.8584893,-0.13784 -0.9719479,-0.56127 -0.07447,-0.27787 0.00803,-0.56081 0.1932934,-0.75456 z" />
      <path
         style="fill:#f0f0f0;fill-opacity:1;stroke:none;stroke-width:0.264583px;stroke-linecap:butt;stroke-linejoin:miter;stroke-opacity:1"
         d="m 1.0583333,294.88331 h 0.2645833 v 0.79375 l 0.79375,1e-5 v 0.26457 h -0.79375 v 0.79375 H 1.0583333 v -0.79375 H 0.26458333 v -0.26458 H 1.0583333 Z"
         id="path963"
         sodipodi:nodetypes="ccccccccccccc" />
      <path
         style="fill:#f0f0f0;fill-opacity:0.25;stroke:none;stroke-width:0.529167"
         d="m 2.3371649,292.74665 c 0.097143,-0.10139 0.2224244,-0.17841 0.3679517,-0.21742 0.4233978,-0.11343 0.8584876,0.13784 0.9719478,0.56127 0.11346,0.42341 -0.1378383,0.85854 -0.561245,0.97198 -0.423399,0.11343 -0.8584893,-0.13784 -0.9719479,-0.56127 -0.07447,-0.27787 0.00803,-0.56081 0.1932934,-0.75456 z"
         id="path6677" />
    </g>
  </g>
</svg>
